<?xml version="1.0" standalone="no"?>
<!DOCTYPE svg PUBLIC "-//W3C//DTD SVG 20010904//EN"
 "http://www.w3.org/TR/2001/REC-SVG-20010904/DTD/svg10.dtd">
<svg version="1.0" xmlns="http://www.w3.org/2000/svg"
 width="512.000000pt" height="512.000000pt" viewBox="0 0 512.000000 512.000000"
 preserveAspectRatio="xMidYMid meet">

<g transform="translate(0.000000,512.000000) scale(0.100000,-0.100000)"
fill="#000000" stroke="none">
<path d="M2325 5030 c-584 -65 -1081 -295 -1489 -690 -406 -393 -657 -893
-737 -1470 -18 -124 -18 -496 0 -620 80 -577 332 -1079 737 -1470 839 -810
2124 -931 3087 -290 611 406 996 1023 1098 1760 18 124 18 496 0 620 -76 551
-305 1025 -681 1414 -377 390 -870 645 -1405 727 -148 23 -481 33 -610 19z
m296 -916 c52 -15 76 -37 747 -707 531 -531 698 -704 717 -741 34 -68 34 -144
0 -212 -33 -66 -1379 -1411 -1440 -1439 -56 -26 -148 -25 -200 2 -59 31 -219
199 -235 247 -16 48 -9 140 14 188 11 22 163 176 407 410 l391 373 -944 5
c-1064 6 -980 -1 -1057 86 -50 57 -61 99 -61 234 0 135 11 177 61 234 77 87
-8 80 1057 86 l944 5 -390 373 c-427 408 -432 415 -432 524 1 77 29 130 119
219 125 123 187 146 302 113z"/>
</g>
</svg>
